,
Brought to you by  http://www.scenetime.com/signup.php
 
 Hottest scene tracker on the net !!!   
 
No fake torrents from scenebalance 
shame on those who comment fake before downloading my torrents

    seed back for speed


 



...................................NFO:.................................................[img]http://noob.hu/2011/05/24/true_grit_poster-535x401.jpg[img]                                        
 

                  ::::::::::::  EP1C Presents  ::::::::::::

::File:: True.Grit.2010.BRRip.AC3.XViD-EP1C

::Video Source:: True Grit 2010 720p BluRay x264-Felony
::Audio Source:: True Grit 2010 720p BluRay x264-Felony

::Encoder::::::: iNK

::Language:::::: English
::IMDB:::::::::: http://www.imdb.com/title/tt1403865/

A tough U.S. Marshal helps a stubborn young woman track down her 
father's murderer.


::Specs:::::::::

Format                           : AVI
Format/Info                      : Audio Video Interleave
File size                        : 1.37 GiB
Duration                         : 1h 50mn
Overall bit rate                 : 1 778 Kbps
Writing application              : VirtualDubMod 1.5.10.2 (build 2540/release)
Writing library                  : VirtualDubMod build 2540/release

Video
ID                               : 0
Format                           : MPEG-4 Visual
Format profile                   : Advanced Simple@L5
Format settings, BVOP            : Yes
Format settings, QPel            : No
Format settings, GMC             : No warppoints
Format settings, Matrix          : Default (H.263)
Muxing mode                      : Packed bitstream
Codec ID                         : XVID
Codec ID/Hint                    : XviD
Duration                         : 1h 50mn
Bit rate                         : 1 321 Kbps
Width                            : 720 pixels
Height                           : 304 pixels
Display aspect ratio             : 2.35:1
Frame rate                       : 23.976 fps
Color space                      : YUV
Chroma subsampling               : 4:2:0
Bit depth                        : 8 bits
Scan type                        : Progressive
Bits/(Pixel*Frame)               : 0.252
Stream size                      : 1.02 GiB (74%)
Writing library                  : XviD 58

Audio
ID                               : 1
Format                           : AC-3
Format/Info                      : Audio Coding 3
Mode extension                   : CM (complete main)
Codec ID                         : 2000
Duration                         : 1h 50mn
Bit rate mode                    : Constant
Bit rate                         : 448 Kbps
Channel(s)                       : 6 channels
Channel positions                : Front: L C R, Side: L R, LFE
Sampling rate                    : 48.0 KHz
Bit depth                        : 16 bits
Stream size                      : 354 MiB (25%)
Alignment                        : Split accross interleaves
Interleave, duration             : 42 ms (1.00 video frame)
Interleave, preload duration     : 500 ms

::NOTES::::::::: 
Wrote a AVS script to bring out detail, dare to compare. 
Enjoy. //iNK

:: Got something we might be interested in? contact us: epic@hushmail.me ::

::::::::::::::::::::::::::::::::  RESPECT  :::::::::::::::::::::::::::::::::
IMAGiNE, Rx, FLAWL3SS, ViSiON, T0XiC, HiVE, bobwhite & All Our Friends!

                 ::::::::::::::::  We Are  ::::::::::::::::  
               :::::: Surpassing the usual or ordinary ::::::
::::::::::::::::::    Heroic and impressive in quality    ::::::::::::::::::     
 ::::::::::::::::::::::::::::::::   EP1C   ::::::::::::::::::::::::::::::::

[img]http://noob.hu/2011/05/24/vlcsnap-2011-05-24-04h49m17s99.png[/img]
[img]http://noob.hu/2011/05/24/vlcsnap-2011-05-24-04h49m52s197.png[/img]
[img]http://noob.hu/2011/05/24/vlcsnap-2011-05-24-04h50m06s89.png[/img]
[img]http://noob.hu/2011/05/24/vlcsnap-2011-05-24-04h47m43s192.png[/img]
[img]http://noob.hu/2011/05/24/vlcsnap-2011-05-24-04h48m45s41.png[/img]